# xmcd
#
# Track frame offsets: 
#        150
#        24043
#        45465
#        66850
#        91078
#        110872
#        133059
#        149517
#        167582
#
# Disc length: 2648 seconds
#
# Revision: 1
# Processed by: cddbd v1.5.2PL0 Copyright (c) Steve Scherf et al.
# Submitted via: ExactAudioCopy v1.0b4
#
DISCID=750a5609
DTITLE=Sugaray Rayford - Southside
DYEAR=2015
DGENRE=Blues
TTITLE0=Southside Of Town
TTITLE1=Miss Thang
TTITLE2=Live To Love Again
TTITLE3=Texas Bluesman
TTITLE4=Take It To The Bank
TTITLE5=Call Off The Misson
TTITLE6=All I Think About
TTITLE7=Take Away These Blues
TTITLE8=Slow Motion
EXTD=
EXTT0=
EXTT1=
EXTT2=
EXTT3=
EXTT4=
EXTT5=
EXTT6=
EXTT7=
EXTT8=
PLAYORDER=
